<mxfile host="app.diagrams.net" modified="2024-01-08T16:10:17.770Z" agent="Mozilla/5.0 (Windows NT 10.0; Win64; x64) AppleWebKit/537.36 (KHTML, like Gecko) Chrome/120.0.0.0 Safari/537.36 Edg/120.0.0.0" etag="gs_ra0_twlD-k_DpGSwX" version="22.1.17" type="github">
  <diagram name="Page-1" id="b33cb84f-bf7a-9ccf-f142-242d16432e5d">
    <mxGraphModel dx="1638" dy="891" grid="1" gridSize="10" guides="1" tooltips="1" connect="1" arrows="1" fold="1" page="1" pageScale="1.5" pageWidth="1169" pageHeight="826" background="none" math="0" shadow="0">
      <root>
        <mxCell id="0" style=";html=1;" />
        <mxCell id="1" style=";html=1;" parent="0" />
        <mxCell id="yGwYDanE8HtUP1_G_n0Y-5" value="APPLICAÇÃO" style="rounded=1;whiteSpace=wrap;html=1;fillColor=none;align=center;horizontal=1;verticalAlign=top;" parent="1" vertex="1">
          <mxGeometry x="330" y="120" width="120" height="200" as="geometry" />
        </mxCell>
        <mxCell id="xzJKQIv7L2bxFtSu1d8E-39" value="APPLICAÇÃO" style="rounded=1;whiteSpace=wrap;html=1;fillColor=none;align=center;horizontal=1;verticalAlign=top;" vertex="1" parent="1">
          <mxGeometry x="330" y="610" width="120" height="260" as="geometry" />
        </mxCell>
        <mxCell id="xzJKQIv7L2bxFtSu1d8E-93" value="Serviço" style="rounded=1;whiteSpace=wrap;html=1;fillColor=none;align=center;horizontal=1;verticalAlign=top;" vertex="1" parent="1">
          <mxGeometry x="672" y="615" width="110" height="225" as="geometry" />
        </mxCell>
        <mxCell id="yGwYDanE8HtUP1_G_n0Y-1" value="PostgreSQL" style="image;html=1;image=img/lib/clip_art/computers/Database_128x128.png" parent="1" vertex="1">
          <mxGeometry x="350" y="360" width="80" height="80" as="geometry" />
        </mxCell>
        <mxCell id="yGwYDanE8HtUP1_G_n0Y-3" value="Base Principal" style="rounded=1;whiteSpace=wrap;html=1;fillColor=none;align=center;horizontal=1;verticalAlign=top;" parent="1" vertex="1">
          <mxGeometry x="330" y="320" width="120" height="150" as="geometry" />
        </mxCell>
        <mxCell id="yGwYDanE8HtUP1_G_n0Y-4" value="" style="shape=image;html=1;verticalAlign=top;verticalLabelPosition=bottom;labelBackgroundColor=#ffffff;imageAspect=0;aspect=fixed;image=https://cdn2.iconfinder.com/data/icons/boxicons-logos/24/bxl-django-128.png" parent="1" vertex="1">
          <mxGeometry x="345" y="185" width="85" height="85" as="geometry" />
        </mxCell>
        <mxCell id="yGwYDanE8HtUP1_G_n0Y-6" value="Services" style="html=1;whiteSpace=wrap;strokeColor=none;fillColor=#0079D6;labelPosition=center;verticalLabelPosition=middle;verticalAlign=top;align=center;fontSize=12;outlineConnect=0;spacingTop=-6;fontColor=#FFFFFF;sketch=0;shape=mxgraph.sitemap.services;" parent="1" vertex="1">
          <mxGeometry x="630" y="178.13" width="90" height="58.75" as="geometry" />
        </mxCell>
        <mxCell id="xzJKQIv7L2bxFtSu1d8E-22" value="" style="shape=flexArrow;endArrow=classic;startArrow=classic;html=1;rounded=0;" edge="1" parent="1">
          <mxGeometry width="100" height="100" relative="1" as="geometry">
            <mxPoint x="450" y="190" as="sourcePoint" />
            <mxPoint x="620" y="190" as="targetPoint" />
          </mxGeometry>
        </mxCell>
        <mxCell id="xzJKQIv7L2bxFtSu1d8E-23" value="start / stop" style="edgeLabel;html=1;align=center;verticalAlign=middle;resizable=0;points=[];fontSize=16;" vertex="1" connectable="0" parent="xzJKQIv7L2bxFtSu1d8E-22">
          <mxGeometry x="-0.0156" y="-2" relative="1" as="geometry">
            <mxPoint y="-21" as="offset" />
          </mxGeometry>
        </mxCell>
        <mxCell id="xzJKQIv7L2bxFtSu1d8E-36" value="PostgreSQL" style="image;html=1;image=img/lib/clip_art/computers/Database_128x128.png" vertex="1" parent="1">
          <mxGeometry x="290" y="910" width="80" height="80" as="geometry" />
        </mxCell>
        <mxCell id="xzJKQIv7L2bxFtSu1d8E-37" value="Base Principal" style="rounded=1;whiteSpace=wrap;html=1;fillColor=none;align=center;horizontal=1;verticalAlign=top;" vertex="1" parent="1">
          <mxGeometry x="270" y="870" width="120" height="150" as="geometry" />
        </mxCell>
        <mxCell id="xzJKQIv7L2bxFtSu1d8E-38" value="" style="shape=image;html=1;verticalAlign=top;verticalLabelPosition=bottom;labelBackgroundColor=#ffffff;imageAspect=0;aspect=fixed;image=https://cdn2.iconfinder.com/data/icons/boxicons-logos/24/bxl-django-128.png" vertex="1" parent="1">
          <mxGeometry x="345" y="697.5" width="85" height="85" as="geometry" />
        </mxCell>
        <mxCell id="xzJKQIv7L2bxFtSu1d8E-53" value="" style="shape=flexArrow;endArrow=classic;html=1;rounded=0;" edge="1" parent="1">
          <mxGeometry width="50" height="50" relative="1" as="geometry">
            <mxPoint x="460" y="228.13" as="sourcePoint" />
            <mxPoint x="620" y="228.63" as="targetPoint" />
          </mxGeometry>
        </mxCell>
        <mxCell id="xzJKQIv7L2bxFtSu1d8E-54" value="GET Config" style="edgeLabel;html=1;align=center;verticalAlign=middle;resizable=0;points=[];fontSize=15;" vertex="1" connectable="0" parent="xzJKQIv7L2bxFtSu1d8E-53">
          <mxGeometry x="-0.5565" y="7" relative="1" as="geometry">
            <mxPoint x="125" y="37" as="offset" />
          </mxGeometry>
        </mxCell>
        <mxCell id="xzJKQIv7L2bxFtSu1d8E-55" value="" style="sketch=0;pointerEvents=1;shadow=0;dashed=0;html=1;strokeColor=none;fillColor=#DF8C42;labelPosition=center;verticalLabelPosition=bottom;verticalAlign=top;align=center;outlineConnect=0;shape=mxgraph.veeam2.restful_api;" vertex="1" parent="1">
          <mxGeometry x="512" y="208" width="50" height="50" as="geometry" />
        </mxCell>
        <mxCell id="xzJKQIv7L2bxFtSu1d8E-56" value="" style="shape=flexArrow;endArrow=classic;html=1;rounded=0;" edge="1" parent="1">
          <mxGeometry width="50" height="50" relative="1" as="geometry">
            <mxPoint x="130" y="223.13" as="sourcePoint" />
            <mxPoint x="320" y="223.13" as="targetPoint" />
          </mxGeometry>
        </mxCell>
        <mxCell id="xzJKQIv7L2bxFtSu1d8E-57" value="POST Data" style="edgeLabel;html=1;align=center;verticalAlign=middle;resizable=0;points=[];fontSize=15;" vertex="1" connectable="0" parent="xzJKQIv7L2bxFtSu1d8E-56">
          <mxGeometry x="-0.5565" y="7" relative="1" as="geometry">
            <mxPoint x="-12" y="-11" as="offset" />
          </mxGeometry>
        </mxCell>
        <mxCell id="xzJKQIv7L2bxFtSu1d8E-58" value="" style="sketch=0;pointerEvents=1;shadow=0;dashed=0;html=1;strokeColor=none;fillColor=#DF8C42;labelPosition=center;verticalLabelPosition=bottom;verticalAlign=top;align=center;outlineConnect=0;shape=mxgraph.veeam2.restful_api;" vertex="1" parent="1">
          <mxGeometry x="217" y="195" width="50" height="50" as="geometry" />
        </mxCell>
        <mxCell id="xzJKQIv7L2bxFtSu1d8E-61" value="" style="shape=flexArrow;endArrow=classic;html=1;rounded=0;" edge="1" parent="1">
          <mxGeometry width="50" height="50" relative="1" as="geometry">
            <mxPoint x="730" y="207.01" as="sourcePoint" />
            <mxPoint x="890" y="207.51" as="targetPoint" />
          </mxGeometry>
        </mxCell>
        <mxCell id="xzJKQIv7L2bxFtSu1d8E-62" value="GET Content" style="edgeLabel;html=1;align=center;verticalAlign=middle;resizable=0;points=[];fontSize=15;" vertex="1" connectable="0" parent="xzJKQIv7L2bxFtSu1d8E-61">
          <mxGeometry x="-0.5565" y="7" relative="1" as="geometry">
            <mxPoint x="125" y="37" as="offset" />
          </mxGeometry>
        </mxCell>
        <mxCell id="xzJKQIv7L2bxFtSu1d8E-63" value="" style="sketch=0;pointerEvents=1;shadow=0;dashed=0;html=1;strokeColor=none;fillColor=#DF8C42;labelPosition=center;verticalLabelPosition=bottom;verticalAlign=top;align=center;outlineConnect=0;shape=mxgraph.veeam2.restful_api;" vertex="1" parent="1">
          <mxGeometry x="782" y="186.88" width="50" height="50" as="geometry" />
        </mxCell>
        <mxCell id="xzJKQIv7L2bxFtSu1d8E-67" value="MongoDB" style="image;html=1;image=img/lib/clip_art/computers/Database_128x128.png" vertex="1" parent="1">
          <mxGeometry x="410" y="910" width="80" height="80" as="geometry" />
        </mxCell>
        <mxCell id="xzJKQIv7L2bxFtSu1d8E-68" value="Base Dados" style="rounded=1;whiteSpace=wrap;html=1;fillColor=none;align=center;horizontal=1;verticalAlign=top;" vertex="1" parent="1">
          <mxGeometry x="390" y="870" width="120" height="150" as="geometry" />
        </mxCell>
        <mxCell id="xzJKQIv7L2bxFtSu1d8E-70" value="Service&lt;br&gt;IP:Porta" style="rounded=1;whiteSpace=wrap;html=1;fillColor=#f8cecc;strokeColor=#b85450;" vertex="1" parent="1">
          <mxGeometry x="760" y="138.13" width="107" height="40" as="geometry" />
        </mxCell>
        <mxCell id="xzJKQIv7L2bxFtSu1d8E-75" value="Services" style="html=1;whiteSpace=wrap;strokeColor=none;fillColor=#0079D6;labelPosition=center;verticalLabelPosition=middle;verticalAlign=top;align=center;fontSize=12;outlineConnect=0;spacingTop=-6;fontColor=#FFFFFF;sketch=0;shape=mxgraph.sitemap.services;" vertex="1" parent="1">
          <mxGeometry x="682" y="708" width="90" height="58.75" as="geometry" />
        </mxCell>
        <mxCell id="xzJKQIv7L2bxFtSu1d8E-76" value="" style="shape=flexArrow;endArrow=classic;startArrow=classic;html=1;rounded=0;" edge="1" parent="1">
          <mxGeometry width="100" height="100" relative="1" as="geometry">
            <mxPoint x="450" y="640" as="sourcePoint" />
            <mxPoint x="670" y="640" as="targetPoint" />
          </mxGeometry>
        </mxCell>
        <mxCell id="xzJKQIv7L2bxFtSu1d8E-77" value="start / stop" style="edgeLabel;html=1;align=center;verticalAlign=middle;resizable=0;points=[];fontSize=16;" vertex="1" connectable="0" parent="xzJKQIv7L2bxFtSu1d8E-76">
          <mxGeometry x="-0.0156" y="-2" relative="1" as="geometry">
            <mxPoint y="-21" as="offset" />
          </mxGeometry>
        </mxCell>
        <mxCell id="xzJKQIv7L2bxFtSu1d8E-78" value="" style="shape=flexArrow;endArrow=classic;html=1;rounded=0;" edge="1" parent="1">
          <mxGeometry width="50" height="50" relative="1" as="geometry">
            <mxPoint x="460" y="678.13" as="sourcePoint" />
            <mxPoint x="670" y="678" as="targetPoint" />
          </mxGeometry>
        </mxCell>
        <mxCell id="xzJKQIv7L2bxFtSu1d8E-79" value="GET Config" style="edgeLabel;html=1;align=center;verticalAlign=middle;resizable=0;points=[];fontSize=15;" vertex="1" connectable="0" parent="xzJKQIv7L2bxFtSu1d8E-78">
          <mxGeometry x="-0.5565" y="7" relative="1" as="geometry">
            <mxPoint x="115" y="37" as="offset" />
          </mxGeometry>
        </mxCell>
        <mxCell id="xzJKQIv7L2bxFtSu1d8E-80" value="" style="sketch=0;pointerEvents=1;shadow=0;dashed=0;html=1;strokeColor=none;fillColor=#DF8C42;labelPosition=center;verticalLabelPosition=bottom;verticalAlign=top;align=center;outlineConnect=0;shape=mxgraph.veeam2.restful_api;" vertex="1" parent="1">
          <mxGeometry x="512" y="658" width="50" height="50" as="geometry" />
        </mxCell>
        <mxCell id="xzJKQIv7L2bxFtSu1d8E-81" value="" style="shape=flexArrow;endArrow=classic;html=1;rounded=0;" edge="1" parent="1">
          <mxGeometry width="50" height="50" relative="1" as="geometry">
            <mxPoint x="660" y="792" as="sourcePoint" />
            <mxPoint x="450" y="791.63" as="targetPoint" />
          </mxGeometry>
        </mxCell>
        <mxCell id="xzJKQIv7L2bxFtSu1d8E-82" value="POST Data" style="edgeLabel;html=1;align=center;verticalAlign=middle;resizable=0;points=[];fontSize=15;" vertex="1" connectable="0" parent="xzJKQIv7L2bxFtSu1d8E-81">
          <mxGeometry x="-0.5565" y="7" relative="1" as="geometry">
            <mxPoint x="17" y="-29" as="offset" />
          </mxGeometry>
        </mxCell>
        <mxCell id="xzJKQIv7L2bxFtSu1d8E-83" value="" style="sketch=0;pointerEvents=1;shadow=0;dashed=0;html=1;strokeColor=none;fillColor=#DF8C42;labelPosition=center;verticalLabelPosition=bottom;verticalAlign=top;align=center;outlineConnect=0;shape=mxgraph.veeam2.restful_api;" vertex="1" parent="1">
          <mxGeometry x="507" y="770" width="50" height="50" as="geometry" />
        </mxCell>
        <mxCell id="xzJKQIv7L2bxFtSu1d8E-85" value="Aplicatinon&lt;br&gt;IP:Porta" style="rounded=1;whiteSpace=wrap;html=1;fillColor=#d5e8d4;strokeColor=#82b366;" vertex="1" parent="1">
          <mxGeometry x="490" y="725" width="83" height="30" as="geometry" />
        </mxCell>
        <mxCell id="xzJKQIv7L2bxFtSu1d8E-88" value="Aplicatinon&lt;br&gt;IP:Porta" style="rounded=1;whiteSpace=wrap;html=1;fillColor=#d5e8d4;strokeColor=#82b366;" vertex="1" parent="1">
          <mxGeometry x="490.5" y="270" width="83" height="30" as="geometry" />
        </mxCell>
        <mxCell id="xzJKQIv7L2bxFtSu1d8E-89" value="Aplicatinon&lt;br&gt;IP:Porta" style="rounded=1;whiteSpace=wrap;html=1;fillColor=#d5e8d4;strokeColor=#82b366;" vertex="1" parent="1">
          <mxGeometry x="200.5" y="153.13" width="83" height="30" as="geometry" />
        </mxCell>
        <mxCell id="xzJKQIv7L2bxFtSu1d8E-92" value="Serviço" style="rounded=1;whiteSpace=wrap;html=1;fillColor=none;align=center;horizontal=1;verticalAlign=top;" vertex="1" parent="1">
          <mxGeometry x="620" y="140" width="110" height="110" as="geometry" />
        </mxCell>
        <mxCell id="xzJKQIv7L2bxFtSu1d8E-94" value="" style="shape=flexArrow;endArrow=classic;html=1;rounded=0;" edge="1" parent="1">
          <mxGeometry width="50" height="50" relative="1" as="geometry">
            <mxPoint x="130" y="685" as="sourcePoint" />
            <mxPoint x="320" y="685" as="targetPoint" />
          </mxGeometry>
        </mxCell>
        <mxCell id="xzJKQIv7L2bxFtSu1d8E-95" value="POST Data" style="edgeLabel;html=1;align=center;verticalAlign=middle;resizable=0;points=[];fontSize=15;" vertex="1" connectable="0" parent="xzJKQIv7L2bxFtSu1d8E-94">
          <mxGeometry x="-0.5565" y="7" relative="1" as="geometry">
            <mxPoint x="-12" y="-11" as="offset" />
          </mxGeometry>
        </mxCell>
        <mxCell id="xzJKQIv7L2bxFtSu1d8E-96" value="" style="sketch=0;pointerEvents=1;shadow=0;dashed=0;html=1;strokeColor=none;fillColor=#DF8C42;labelPosition=center;verticalLabelPosition=bottom;verticalAlign=top;align=center;outlineConnect=0;shape=mxgraph.veeam2.restful_api;" vertex="1" parent="1">
          <mxGeometry x="217" y="656.87" width="50" height="50" as="geometry" />
        </mxCell>
        <mxCell id="xzJKQIv7L2bxFtSu1d8E-97" value="Aplicatinon&lt;br&gt;IP:Porta" style="rounded=1;whiteSpace=wrap;html=1;fillColor=#d5e8d4;strokeColor=#82b366;" vertex="1" parent="1">
          <mxGeometry x="200.5" y="725" width="83" height="30" as="geometry" />
        </mxCell>
        <mxCell id="xzJKQIv7L2bxFtSu1d8E-101" value="" style="shape=flexArrow;endArrow=classic;html=1;rounded=0;" edge="1" parent="1">
          <mxGeometry width="50" height="50" relative="1" as="geometry">
            <mxPoint x="330" y="792" as="sourcePoint" />
            <mxPoint x="120" y="791.63" as="targetPoint" />
          </mxGeometry>
        </mxCell>
        <mxCell id="xzJKQIv7L2bxFtSu1d8E-102" value="GET Data" style="edgeLabel;html=1;align=center;verticalAlign=middle;resizable=0;points=[];fontSize=15;" vertex="1" connectable="0" parent="xzJKQIv7L2bxFtSu1d8E-101">
          <mxGeometry x="-0.5565" y="7" relative="1" as="geometry">
            <mxPoint x="-123" y="-32" as="offset" />
          </mxGeometry>
        </mxCell>
        <mxCell id="xzJKQIv7L2bxFtSu1d8E-103" value="" style="sketch=0;pointerEvents=1;shadow=0;dashed=0;html=1;strokeColor=none;fillColor=#DF8C42;labelPosition=center;verticalLabelPosition=bottom;verticalAlign=top;align=center;outlineConnect=0;shape=mxgraph.veeam2.restful_api;" vertex="1" parent="1">
          <mxGeometry x="216" y="770" width="50" height="50" as="geometry" />
        </mxCell>
        <mxCell id="xzJKQIv7L2bxFtSu1d8E-106" value="APPLICAÇÃO" style="rounded=1;whiteSpace=wrap;html=1;fillColor=none;align=center;horizontal=1;verticalAlign=top;" vertex="1" parent="1">
          <mxGeometry x="340" y="1200" width="120" height="200" as="geometry" />
        </mxCell>
        <mxCell id="xzJKQIv7L2bxFtSu1d8E-107" value="PostgreSQL" style="image;html=1;image=img/lib/clip_art/computers/Database_128x128.png" vertex="1" parent="1">
          <mxGeometry x="360" y="1440" width="80" height="80" as="geometry" />
        </mxCell>
        <mxCell id="xzJKQIv7L2bxFtSu1d8E-108" value="Base Principal" style="rounded=1;whiteSpace=wrap;html=1;fillColor=none;align=center;horizontal=1;verticalAlign=top;" vertex="1" parent="1">
          <mxGeometry x="340" y="1400" width="120" height="150" as="geometry" />
        </mxCell>
        <mxCell id="xzJKQIv7L2bxFtSu1d8E-109" value="" style="shape=image;html=1;verticalAlign=top;verticalLabelPosition=bottom;labelBackgroundColor=#ffffff;imageAspect=0;aspect=fixed;image=https://cdn2.iconfinder.com/data/icons/boxicons-logos/24/bxl-django-128.png" vertex="1" parent="1">
          <mxGeometry x="355" y="1265" width="85" height="85" as="geometry" />
        </mxCell>
        <mxCell id="xzJKQIv7L2bxFtSu1d8E-110" value="Services" style="html=1;whiteSpace=wrap;strokeColor=none;fillColor=#0079D6;labelPosition=center;verticalLabelPosition=middle;verticalAlign=top;align=center;fontSize=12;outlineConnect=0;spacingTop=-6;fontColor=#FFFFFF;sketch=0;shape=mxgraph.sitemap.services;" vertex="1" parent="1">
          <mxGeometry x="640" y="1258.13" width="90" height="58.75" as="geometry" />
        </mxCell>
        <mxCell id="xzJKQIv7L2bxFtSu1d8E-111" value="" style="shape=flexArrow;endArrow=classic;startArrow=classic;html=1;rounded=0;" edge="1" parent="1">
          <mxGeometry width="100" height="100" relative="1" as="geometry">
            <mxPoint x="460" y="1270" as="sourcePoint" />
            <mxPoint x="630" y="1270" as="targetPoint" />
          </mxGeometry>
        </mxCell>
        <mxCell id="xzJKQIv7L2bxFtSu1d8E-112" value="start / stop" style="edgeLabel;html=1;align=center;verticalAlign=middle;resizable=0;points=[];fontSize=16;" vertex="1" connectable="0" parent="xzJKQIv7L2bxFtSu1d8E-111">
          <mxGeometry x="-0.0156" y="-2" relative="1" as="geometry">
            <mxPoint y="-21" as="offset" />
          </mxGeometry>
        </mxCell>
        <mxCell id="xzJKQIv7L2bxFtSu1d8E-113" value="" style="shape=flexArrow;endArrow=classic;html=1;rounded=0;" edge="1" parent="1">
          <mxGeometry width="50" height="50" relative="1" as="geometry">
            <mxPoint x="470" y="1308.13" as="sourcePoint" />
            <mxPoint x="630" y="1308.63" as="targetPoint" />
          </mxGeometry>
        </mxCell>
        <mxCell id="xzJKQIv7L2bxFtSu1d8E-114" value="GET Config" style="edgeLabel;html=1;align=center;verticalAlign=middle;resizable=0;points=[];fontSize=15;" vertex="1" connectable="0" parent="xzJKQIv7L2bxFtSu1d8E-113">
          <mxGeometry x="-0.5565" y="7" relative="1" as="geometry">
            <mxPoint x="85" y="29" as="offset" />
          </mxGeometry>
        </mxCell>
        <mxCell id="xzJKQIv7L2bxFtSu1d8E-115" value="" style="sketch=0;pointerEvents=1;shadow=0;dashed=0;html=1;strokeColor=none;fillColor=#DF8C42;labelPosition=center;verticalLabelPosition=bottom;verticalAlign=top;align=center;outlineConnect=0;shape=mxgraph.veeam2.restful_api;" vertex="1" parent="1">
          <mxGeometry x="497" y="1288" width="50" height="50" as="geometry" />
        </mxCell>
        <mxCell id="xzJKQIv7L2bxFtSu1d8E-116" value="" style="shape=flexArrow;endArrow=classic;html=1;rounded=0;" edge="1" parent="1">
          <mxGeometry width="50" height="50" relative="1" as="geometry">
            <mxPoint x="140" y="1303.13" as="sourcePoint" />
            <mxPoint x="330" y="1303.13" as="targetPoint" />
          </mxGeometry>
        </mxCell>
        <mxCell id="xzJKQIv7L2bxFtSu1d8E-117" value="POST Data" style="edgeLabel;html=1;align=center;verticalAlign=middle;resizable=0;points=[];fontSize=15;" vertex="1" connectable="0" parent="xzJKQIv7L2bxFtSu1d8E-116">
          <mxGeometry x="-0.5565" y="7" relative="1" as="geometry">
            <mxPoint x="-12" y="-11" as="offset" />
          </mxGeometry>
        </mxCell>
        <mxCell id="xzJKQIv7L2bxFtSu1d8E-118" value="" style="sketch=0;pointerEvents=1;shadow=0;dashed=0;html=1;strokeColor=none;fillColor=#DF8C42;labelPosition=center;verticalLabelPosition=bottom;verticalAlign=top;align=center;outlineConnect=0;shape=mxgraph.veeam2.restful_api;" vertex="1" parent="1">
          <mxGeometry x="227" y="1275" width="50" height="50" as="geometry" />
        </mxCell>
        <mxCell id="xzJKQIv7L2bxFtSu1d8E-119" value="" style="shape=flexArrow;endArrow=classic;html=1;rounded=0;" edge="1" parent="1">
          <mxGeometry width="50" height="50" relative="1" as="geometry">
            <mxPoint x="740" y="1287.01" as="sourcePoint" />
            <mxPoint x="900" y="1287.51" as="targetPoint" />
          </mxGeometry>
        </mxCell>
        <mxCell id="xzJKQIv7L2bxFtSu1d8E-120" value="GET Data" style="edgeLabel;html=1;align=center;verticalAlign=middle;resizable=0;points=[];fontSize=15;" vertex="1" connectable="0" parent="xzJKQIv7L2bxFtSu1d8E-119">
          <mxGeometry x="-0.5565" y="7" relative="1" as="geometry">
            <mxPoint x="125" y="37" as="offset" />
          </mxGeometry>
        </mxCell>
        <mxCell id="xzJKQIv7L2bxFtSu1d8E-121" value="" style="sketch=0;pointerEvents=1;shadow=0;dashed=0;html=1;strokeColor=none;fillColor=#DF8C42;labelPosition=center;verticalLabelPosition=bottom;verticalAlign=top;align=center;outlineConnect=0;shape=mxgraph.veeam2.restful_api;" vertex="1" parent="1">
          <mxGeometry x="792" y="1266.88" width="50" height="50" as="geometry" />
        </mxCell>
        <mxCell id="xzJKQIv7L2bxFtSu1d8E-122" value="Service&lt;br&gt;IP:Porta" style="rounded=1;whiteSpace=wrap;html=1;fillColor=#f8cecc;strokeColor=#b85450;" vertex="1" parent="1">
          <mxGeometry x="770" y="1218.13" width="107" height="40" as="geometry" />
        </mxCell>
        <mxCell id="xzJKQIv7L2bxFtSu1d8E-123" value="Aplicatinon&lt;br&gt;IP:Porta" style="rounded=1;whiteSpace=wrap;html=1;fillColor=#d5e8d4;strokeColor=#82b366;" vertex="1" parent="1">
          <mxGeometry x="500.5" y="1350" width="83" height="30" as="geometry" />
        </mxCell>
        <mxCell id="xzJKQIv7L2bxFtSu1d8E-124" value="Aplicatinon&lt;br&gt;IP:Porta" style="rounded=1;whiteSpace=wrap;html=1;fillColor=#d5e8d4;strokeColor=#82b366;" vertex="1" parent="1">
          <mxGeometry x="210.5" y="1233.13" width="83" height="30" as="geometry" />
        </mxCell>
        <mxCell id="xzJKQIv7L2bxFtSu1d8E-125" value="Serviço" style="rounded=1;whiteSpace=wrap;html=1;fillColor=none;align=center;horizontal=1;verticalAlign=top;" vertex="1" parent="1">
          <mxGeometry x="630" y="1220" width="110" height="110" as="geometry" />
        </mxCell>
        <mxCell id="xzJKQIv7L2bxFtSu1d8E-127" value="MongoDB" style="image;html=1;image=img/lib/clip_art/computers/Database_128x128.png" vertex="1" parent="1">
          <mxGeometry x="650" y="1370" width="80" height="80" as="geometry" />
        </mxCell>
        <mxCell id="xzJKQIv7L2bxFtSu1d8E-128" value="Base Dados" style="rounded=1;whiteSpace=wrap;html=1;fillColor=none;align=center;horizontal=1;verticalAlign=top;" vertex="1" parent="1">
          <mxGeometry x="630" y="1330" width="110" height="150" as="geometry" />
        </mxCell>
      </root>
    </mxGraphModel>
  </diagram>
</mxfile>
